<svg xmlns="http://www.w3.org/2000/svg" width="250" height="250" fill="none" viewBox="0 0 250 250">
<!-- SVG created with Arrow, by QuiverAI (https://quiver.ai) -->
  <path d="m223.5 170.3-0.21-11.19c3.21-2.76 4.38-7.36 2.26-11.19-2.12-3.82-6.11-5.27-10.53-3.97l-11.54-19.17 10.38-18.49c4.97 1.46 9.93-1.24 11.81-5.48 1.66-3.89 0.55-8.33-2.64-10.98l0.37-9.88c4.36-2.52 6.59-7.29 5.08-12.15-2.14-7.15-9.15-9.55-15.94-6.45l-9.65-5.18c-1.09-5.72-5.01-7.86-9.09-7.64-4.36 0.23-6.88 3.28-8.32 7.82h-21.28l-10.06-18.45c3.61-4.7 1.99-11.98-3.48-14.57-2.31-1.06-4.66-1.16-6.83-0.55l-9.2-6.12c0.16-6.27-4.4-10.88-10.06-10.88-6.37 0-9.74 4.97-9.74 10.01l-10.14 6.55c-3.5-1.56-7.24-0.21-9.36 2.31-3.45 4.11-3 9.1-0.04 13.05l-10.1 18.65h-20.39c-1.51-5.52-4.67-7.84-9.47-7.72-4.49 0.12-7.2 3.25-8.55 7.33l-9.78 5.39c-4.93-2.27-9.58-2.1-13.36 2.29-4.94 5.77-3.39 13.49 2.29 16.79l0.16 9.23c-3.96 2.49-4.87 8.13-3.17 11.69 2.15 4.76 6.8 5.95 11.48 4.94l11.32 18.36-11.12 18.69c-4.5-1.33-8.83 0.98-10.97 5.04-2.34 4.59-0.91 9.1 2.74 11.82l-0.21 9.34c-4.98 2.21-7.23 8.56-5.34 13.15 2.71 6.79 9.41 7.84 15.1 5.27l11.28 5.87c1.18 4.99 5.09 7.17 9.22 6.9 4.51-0.28 6.81-2.98 7.9-7.56l20.96-0.22 10.34 17.94c-3.2 3.87-3.5 9.54 0.15 13.36 2.75 2.97 6.52 3.38 9.51 2.22l9.87 6.73c-0.28 6.65 4.98 11.41 9.75 11.1 6.29-0.28 9.86-5.35 9.63-10.92l10.3-6.68c4.9 1.76 9.85-0.95 11.63-4.92 1.77-3.97 0.52-7.96-2.53-10.67l10.77-18.16h20.23c1.49 5.24 4.8 7.73 9.8 7.4 4.49-0.3 7.07-3.5 7.89-7.3l9.82-5.74c5.28 2.71 11.54 1.15 14.65-3.85 3.1-4.99 1.08-10.64-3.59-13.16z" fill="url(#paint0_linear_1188_1074)"/>
  <path d="m219.7 171.7 0.5-13.49c3.69-1.32 3.5-6.42 0.9-8.69-2.19-1.94-5.3-1.4-7.07 0.25l-12.73-22.14c-0.9-1.61-0.82-3.04 0.17-4.75l10.04-18.96c0.89-1.71 2.7-2.88 4.62-2.08 4.79 2.1 8.57-4.75 4.67-8.04-0.99-0.83-2.07-1.09-2-2.62l0.7-12.88c7.58-2.21 6.71-13.25-0.99-13.25-2.8 0-4.6 1.55-5.7 3.26l-15.11-8.44c1-4.33-2.1-6.36-4.59-6.13-3.21 0.3-4.46 3.27-4.09 5.6l-4.65 2.1-22.26-0.06-13.26-23.59c3.05-3.34 1.55-10.75-4.65-9.95-1.14 0.16-2 0.8-2.73 0.9l-13.51-9.6c1.77-4.39-0.91-8.35-4.21-8.45-4.97-0.18-6.53 4.4-5.12 8.39l-13.92 8.66c-5.97-2.52-8.9 3.48-6.81 7.3 0.95 1.86 1.82 2.05 0.56 4.81l-11.5 21.17-23.75-0.22-2.6-2.87c-0.37-5.92-8.5-5.82-8.87-0.61-0.08 1.23 0.34 1.72-0.74 2.32l-15.09 8c-1.51-1.76-3.07-2.45-5.21-2.25-6.88 0.65-7.53 10.73-0.99 12.75l0.77 14.9c-4.58 1.87-4.17 9.36 1.66 9.9 2.36 0.23 3.26-1.42 4.67-1.1l3.9 2.62 10.44 19.19-12.88 22.44-3.37 2.21c-5.9-2.37-9.21 4.06-6.69 7.66 0.9 1.33 2.19 1.51 2.12 2.78l-0.53 13.94c-6.7 1.21-6.3 11.24 0.37 11.86 2.94 0.3 4.94-1.35 6.21-3.31l14.43 8.22c-0.53 4.39 3.82 7.36 7.6 4.89 1.85-1.16 2-2.87 2.6-5l2.6-1.05 23.29 0.05 13.21 21.6c-0.94 1.96-2.41 3.51-1.71 6.53 1.2 5.15 7.45 4.72 8.77 2.2l13.88 9.55c-2.22 4.9 0.71 10.02 4.82 9.52 4.83-0.58 5.8-4.87 4.34-9.31l14.66-9.6c2.28 3.12 5.18 2.66 6.74 0.9 2.83-3.17 0.41-7.66-2.61-8.49l13.11-22.9 23.6-0.1 3.8 2.42c0 5.52 6.1 6.45 8.6 3.48 1.29-1.55 1.19-3.21 0.97-4.69l14.04-8.6c2.04 2.67 5.35 3.6 8.18 1.99 5.7-3.13 3.88-10.4-1.6-11.14z" stroke="url(#paint1_linear_1188_1074)" stroke-miterlimit="10" stroke-width="3.209"/>
  <path d="m33.99 71.56 52.92-5.87" stroke="url(#paint2_linear_1188_1074)" stroke-miterlimit="10" stroke-width="2.674"/>
  <path d="m121 61.82 66.13-0.41" stroke="url(#paint3_linear_1188_1074)" stroke-miterlimit="10" stroke-width="3.209"/>
  <path d="m213.3 71.22-43.17-2.21-7.99 7.25" stroke="url(#paint4_linear_1188_1074)" stroke-miterlimit="10" stroke-width="2.674"/>
  <path d="m215.1 176.6-50.03 2.38" stroke="url(#paint5_linear_1188_1074)" stroke-miterlimit="10" stroke-width="2.674"/>
  <path d="m128.9 227.9 18.36-11.88" stroke="url(#paint6_linear_1188_1074)" stroke-miterlimit="10" stroke-width="2.674"/>
  <path d="m90.11 187.1 33.08 46.05" stroke="url(#paint7_linear_1188_1074)" stroke-miterlimit="10" stroke-width="2.674"/>
  <path d="m35.21 176.6 42.6 3.12 9.38-7.08" stroke="url(#paint8_linear_1188_1074)" stroke-miterlimit="10" stroke-width="2.139"/>
  <path d="m49.91 125.1-18.12 29.9" stroke="url(#paint9_linear_1188_1074)" stroke-miterlimit="10" stroke-width="3.209"/>
  <path d="m33.05 73.82 20.76 38.09 10.5 4.26" stroke="url(#paint10_linear_1188_1074)" stroke-miterlimit="10" stroke-width="2.139"/>
  <path d="m119.9 18.51-17.22 11.1" stroke="url(#paint11_linear_1188_1074)" stroke-miterlimit="10" stroke-width="2.674"/>
  <path d="m127 18.01 32.67 42.6" stroke="url(#paint12_linear_1188_1074)" stroke-miterlimit="10" stroke-width="2.674"/>
  <path d="m215.5 73.82-21.29 40.9" stroke="url(#paint13_linear_1188_1074)" stroke-miterlimit="10" stroke-width="2.674"/>
  <path d="m216.8 75.22-0.8 19.59" stroke="url(#paint14_linear_1188_1074)" stroke-miterlimit="10" stroke-width="2.674"/>
  <path d="m196.9 123 12.71-20.8c1.1-1.95 2.56-3.1 4.88-3.5" stroke="url(#paint15_linear_1188_1074)" stroke-miterlimit="10" stroke-width="3.209"/>
  <path d="m215.1 150.2 0.92 22.96" stroke="url(#paint16_linear_1188_1074)" stroke-miterlimit="10" stroke-width="3.209"/>
  <path d="m185.1 132.9 10.6 4.89 17.56 34.84" stroke="url(#paint17_linear_1188_1074)" stroke-miterlimit="10" stroke-width="2.674"/>
  <path d="m130 186.1-0.9 13.8 8.38-2.7 10.6-15.61-0.85-2.61" stroke="url(#paint18_linear_1188_1074)" stroke-miterlimit="10" stroke-width="2.139"/>
  <path d="m105.3 188.2 6.9 11.7 6.9 2.2" stroke="url(#paint19_linear_1188_1074)" stroke-miterlimit="10" stroke-width="2.139"/>
  <path d="m57.22 138.6-3.41 11.54v8.03" stroke="url(#paint20_linear_1188_1074)" stroke-miterlimit="10" stroke-width="2.674"/>
  <path d="m102 185.2 24.29 42.98" stroke="url(#paint21_linear_1188_1074)" stroke-miterlimit="10" stroke-width="2.674"/>
  <path d="m160.8 176.6 22.9-3.96 6.2-6.64" stroke="url(#paint22_linear_1188_1074)" stroke-miterlimit="10" stroke-width="2.674"/>
  <path d="m129.1 47.21 7.08 2.2 6.9 10.43" stroke="url(#paint23_linear_1188_1074)" stroke-miterlimit="10" stroke-width="2.139"/>
  <path d="m102 67.21-0.9-11.2 19.86-32.6" stroke="url(#paint24_linear_1188_1074)" stroke-miterlimit="10" stroke-width="2.674"/>
  <path d="m118.4 68.01 28.89 0.6" stroke="url(#paint25_linear_1188_1074)" stroke-miterlimit="10" stroke-width="2.139"/>
  <path d="m113.5 76.71 67.1 0.4 8 6.1" stroke="url(#paint26_linear_1188_1074)" stroke-miterlimit="10" stroke-width="2.674"/>
  <path d="m176.2 91.71 12.4 22.41" stroke="url(#paint27_linear_1188_1074)" stroke-miterlimit="10" stroke-width="2.674"/>
  <path d="m167.6 91.71 25.3 57.54-0.9 8.93" stroke="url(#paint28_linear_1188_1074)" stroke-miterlimit="10" stroke-width="2.674"/>
  <path d="m175.3 145.8-15 26.9" stroke="url(#paint29_linear_1188_1074)" stroke-miterlimit="10" stroke-width="2.674"/>
  <path d="m121 47.21-6.56 1.4-41.71 55.11" stroke="url(#paint30_linear_1188_1074)" stroke-miterlimit="10" stroke-width="2.674"/>
  <path d="m124.6 50.81-39.65 62.71" stroke="url(#paint31_linear_1188_1074)" stroke-miterlimit="10" stroke-width="3.209"/>
  <path d="m120.1 45.61 4.5-5 4.58 3.2v4l-3.73 3.4-4.35-0.9-1-4.7z" fill="url(#paint32_linear_1188_1074)"/>
  <path d="m103.1 35.31c3.4-1.3 4.55-6.35 1.3-8.7-4.35-2.2-7.81 2.1-6.21 6 0.9 2.1 2.4 3.1 4.91 2.7z" fill="url(#paint33_linear_1188_1074)"/>
  <path d="m148.4 36.61c4.9-1 4.5-8.9-1.5-8.4-4.2 0.4-5 5.7-2.3 7.8 1.1 0.8 2.4 0.8 3.8 0.6z" fill="url(#paint34_linear_1188_1074)"/>
  <path d="m195.1 62.11c4.99-1 4.09-8.3-0.7-7.8-4.6 0.5-4.7 7.1-0.2 7.8h0.9z" fill="url(#paint35_linear_1188_1074)"/>
  <path d="m218.2 75.72c6.6-0.5 6.9-9.6 0.5-9.6-5.9 0-7 8.3-1.4 9.5 0.3 0.1 0.6 0.1 0.9 0.1z" fill="url(#paint36_linear_1188_1074)"/>
  <path d="m217.7 100.7c5.2-0.7 4.7-8.3 0-7.6-4.3 0.6-4.5 6.8 0 7.6z" fill="url(#paint37_linear_1188_1074)"/>
  <path d="m217.2 156.1c4.8-0.3 5.2-7.3 0.1-7.3-4.5 0-4.6 6.7-0.1 7.3z" fill="url(#paint38_linear_1188_1074)"/>
  <path d="m217.7 183.3c6.2-0.5 6.9-9.5 0-9.5-5.9 0-6.1 8.8 0 9.5z" fill="url(#paint39_linear_1188_1074)"/>
  <path d="m193.7 194.5c3.9-0.7 4.1-6.9-0.8-6.6-4.6 0.3-4.2 6.8 0.8 6.6z" fill="url(#paint40_linear_1188_1074)"/>
  <path d="m147.3 221.9c4.7-0.5 4.5-8-0.85-6.9-4.2 0.9-3.6 6.9 0.85 6.9z" fill="url(#paint41_linear_1188_1074)"/>
  <path d="m102 221.6c4.2-0.6 4.1-6.9-0.5-6.6-4.21 0.3-4.11 6.4 0.5 6.6z" fill="url(#paint42_linear_1188_1074)"/>
  <path d="m56.32 195.4c4.5-0.4 4.4-6.8-0.2-6.6-4.4 0.2-4.6 6.4 0.2 6.6z" fill="url(#paint43_linear_1188_1074)"/>
  <path d="m30.72 182.7c5.29 1 7.49-6.7 2.4-8.5-5.9-1.4-7.9 7.2-2.4 8.5z" fill="url(#paint44_linear_1188_1074)"/>
  <path d="m32.12 155.3c4.79 0 4.99-7.1 0.5-6.7-4.2 0.3-4.3 6.2-0.5 6.7z" fill="url(#paint45_linear_1188_1074)"/>
  <path d="m31.72 101.1c4.49 0.9 6.09-6 1.6-7.1-4.6-1.1-5.9 6-1.6 7.1z" fill="url(#paint46_linear_1188_1074)"/>
  <path d="m30.72 76.12c5.49 1.1 7.29-7.2 2.4-9.1-5.8-2-8.2 7.6-2.4 9.1z" fill="url(#paint47_linear_1188_1074)"/>
  <path d="m55.42 62.11c5 0 5.2-7.2 0.3-7-4.5 0.2-4.7 6.6-0.3 7z" fill="url(#paint48_linear_1188_1074)"/>
  <path d="m85.18 74.02-16.57 21.69" stroke="url(#paint49_linear_1188_1074)" stroke-miterlimit="10" stroke-width="2.674"/>
  <path d="m79.61 158.7-24.9-44.06" stroke="url(#paint50_linear_1188_1074)" stroke-miterlimit="10" stroke-width="2.139"/>
  <path d="m70.21 157.9-10.09-18.27" stroke="url(#paint51_linear_1188_1074)" stroke-miterlimit="10" stroke-width="2.139"/>
  <path d="m128.2 185.7h-29.03" stroke="url(#paint52_linear_1188_1074)" stroke-miterlimit="10" stroke-width="2.139"/>
  <path d="m136.6 172.6h-69.61l-7.99-7.54" stroke="url(#paint53_linear_1188_1074)" stroke-miterlimit="10" stroke-width="2.674"/>
  <path d="m187.7 108.8 6-9.7 0.5-6-3.1-6.9" stroke="url(#paint54_linear_1188_1074)" stroke-miterlimit="10" stroke-width="2.674"/>
  <path d="m59.02 82.11 5.29-5.4 13.5-0.5" stroke="url(#paint55_linear_1188_1074)" stroke-miterlimit="10" stroke-width="2.139"/>
  <path d="m56.32 90.01-1.61 8.7 37.6 55.11" stroke="url(#paint56_linear_1188_1074)" stroke-miterlimit="10" stroke-width="3.209"/>
  <path d="m156.4 96.11 33.5 62.07" stroke="url(#paint57_linear_1188_1074)" stroke-miterlimit="10" stroke-width="3.209"/>
  <path d="m164.4 137.2-37.21 61.8" stroke="url(#paint58_linear_1188_1074)" stroke-miterlimit="10" stroke-width="3.209"/>
  <path d="m137.5 138.6" stroke="url(#paint59_linear_1188_1074)" stroke-miterlimit="10" stroke-width="3.209"/>
  <path d="m136.6 164.6h-75" stroke="url(#paint60_linear_1188_1074)" stroke-miterlimit="10" stroke-width="2.674"/>
  <path d="m185.1 123.6c3.8 1.5 5.7-4.49 2-6.19-4.2-1.8-6.2 4.59-2 6.19z" fill="url(#paint61_linear_1188_1074)"/>
  <path d="m164.4 138.8c5.5 1.3 6.2-8.2 0.6-8.5-5.1-0.3-5.5 7.3-0.6 8.5z" fill="url(#paint62_linear_1188_1074)"/>
  <path d="m158.6 179.1c5 0 5.3-7.3 0.3-7.1-4.5 0.2-4.4 6.6-0.3 7.1z" fill="url(#paint63_linear_1188_1074)"/>
  <path d="m98.71 183c5 0 5-7.3 0-7.3-4.8 0-4.8 7.1 0 7.3z" fill="url(#paint64_linear_1188_1074)"/>
  <path d="m56.32 169.8c7.6 0 7.6-11.4 0-11.4-7.2 0-7.4 10.9 0 11.4z" fill="url(#paint65_linear_1188_1074)"/>
  <path d="m63.42 133.4c4.89 0.6 5.39-7.6 0.1-7.4-4.4 0.2-4.5 6.8-0.1 7.4z" fill="url(#paint66_linear_1188_1074)"/>
  <path d="m192.9 169.3c8-1 7.1-11.69-0.5-11.19-6.8 0.5-6 10.79 0.5 11.19z" fill="url(#paint67_linear_1188_1074)"/>
  <path d="m192.4 91.31c7-0.9 6.4-11.6-0.8-11.5-6.7 0.1-6.5 10.9 0.8 11.5z" fill="url(#paint68_linear_1188_1074)"/>
  <path d="m150.1 73.62c5.5 1.4 6.7-7.3 0.7-7.6-5-0.3-5.3 6.6-0.7 7.6z" fill="url(#paint69_linear_1188_1074)"/>
  <path d="m112.6 88.91c5.7 0 5.7-8.1 0-8.1-5.4 0-5.4 7.7 0 8.1z" fill="url(#paint70_linear_1188_1074)"/>
  <path d="m153.7 99.21c5.6 0 5.5-9.1-0.5-8.9-5.1 0.2-4.7 8.4 0.5 8.9z" fill="url(#paint71_linear_1188_1074)"/>
  <path d="m136.9 168.8c5.5 0 5.5-8.1-0.2-8.1-5.4 0-5.3 7.7 0.2 8.1z" fill="url(#paint72_linear_1188_1074)"/>
  <path d="m56.32 91.31c7.4 0 7.3-11.6-0.1-11.6-7 0-7.3 10.7 0.1 11.6z" fill="url(#paint73_linear_1188_1074)"/>
  <path d="m95.61 159c5.1 0 4.8-8.59-0.9-7.99-4.8 0.5-4.3 7.7 0.9 7.99z" fill="url(#paint74_linear_1188_1074)"/>
  <path d="m83.91 119.1c5.1 0.5 6-7.1 1.2-7.9-5.2-0.9-6.2 7.2-1.2 7.9z" fill="url(#paint75_linear_1188_1074)"/>
  <path d="m90.11 77.71c5 0 5.3-7.3 0.3-7.3-4.7 0-4.7 6.9-0.3 7.3z" fill="url(#paint76_linear_1188_1074)"/>
  <path d="m124.6 209.3c7.2 0 7.7-10.9 0.4-11.3-7.2-0.4-7.8 10.5-0.4 11.3z" fill="url(#paint77_linear_1188_1074)"/>
  <path d="m112 103.9-8.8 23.8h8.1l5.1-15.49 10.49 32.89h8.01l-14.3-41.2h-8.6z" fill="url(#paint78_linear_1188_1074)"/>
  <path d="m102.5 130.3-5.91 14.8h8.61l2.4-8.7h12.4l-1.8-6.1h-15.7z" fill="url(#paint79_linear_1188_1074)"/>
  <path d="m139.3 104.1v8.8h7.9v-8.8h-7.9zm0 11.4v29.6h7.9v-29.6h-7.9z" fill="url(#paint80_linear_1188_1074)"/>
  <defs>
    <linearGradient id="paint0_linear_1188_1074" x1="125" x2="125" y1="5.737" y2="244.3" gradientUnits="userSpaceOnUse">
      <stop stop-color="#361A6E" offset="0"/>
      <stop stop-color="#7C439A" offset="1"/>
    </linearGradient>
    <linearGradient id="paint1_linear_1188_1074" x1="125" x2="125" y1="10.64" y2="237.8" gradientUnits="userSpaceOnUse">
      <stop stop-color="#9B68F2" offset="0"/>
      <stop stop-color="#A776D3" offset=".5208"/>
      <stop stop-color="#9B68F2" offset="1"/>
    </linearGradient>
    <linearGradient id="paint2_linear_1188_1074" x1="59.95" x2="59.95" y1="65.69" y2="72.06" gradientUnits="userSpaceOnUse">
      <stop stop-color="#A776D3" offset="0"/>
      <stop stop-color="#9B68F2" offset="1"/>
    </linearGradient>
    <linearGradient id="paint3_linear_1188_1074" x1="154" x2="154" y1="61.35" y2="62.89" gradientUnits="userSpaceOnUse">
      <stop stop-color="#A776D3" offset="0"/>
      <stop stop-color="#9B68F2" offset="1"/>
    </linearGradient>
    <linearGradient id="paint4_linear_1188_1074" x1="188.9" x2="188.9" y1="68.54" y2="76.26" gradientUnits="userSpaceOnUse">
      <stop stop-color="#A776D3" offset="0"/>
      <stop stop-color="#9B68F2" offset="1"/>
    </linearGradient>
    <linearGradient id="paint5_linear_1188_1074" x1="190.1" x2="190.1" y1="178.3" y2="179.7" gradientUnits="userSpaceOnUse">
      <stop stop-color="#A776D3" offset="0"/>
      <stop stop-color="#9B68F2" offset="1"/>
    </linearGradient>
    <linearGradient id="paint6_linear_1188_1074" x1="138.1" x2="138.1" y1="216" y2="228.7" gradientUnits="userSpaceOnUse">
      <stop stop-color="#A776D3" offset="0"/>
      <stop stop-color="#9B68F2" offset="1"/>
    </linearGradient>
    <linearGradient id="paint7_linear_1188_1074" x1="106.6" x2="106.6" y1="187.1" y2="233.2" gradientUnits="userSpaceOnUse">
      <stop stop-color="#A776D3" offset="0"/>
      <stop stop-color="#9B68F2" offset="1"/>
    </linearGradient>
    <linearGradient id="paint8_linear_1188_1074" x1="56.17" x2="56.17" y1="172.6" y2="180.3" gradientUnits="userSpaceOnUse">
      <stop stop-color="#80D7F7" offset="0"/>
      <stop stop-color="#9B68F2" offset="1"/>
    </linearGradient>
    <linearGradient id="paint9_linear_1188_1074" x1="40.85" x2="40.85" y1="125.1" y2="155" gradientUnits="userSpaceOnUse">
      <stop stop-color="#A776D3" offset="0"/>
      <stop stop-color="#9B68F2" offset="1"/>
    </linearGradient>
    <linearGradient id="paint10_linear_1188_1074" x1="48.93" x2="48.93" y1="73.82" y2="112.9" gradientUnits="userSpaceOnUse">
      <stop stop-color="#80D7F7" offset="0"/>
      <stop stop-color="#9B68F2" offset="1"/>
    </linearGradient>
    <linearGradient id="paint11_linear_1188_1074" x1="110.8" x2="110.8" y1="18.51" y2="30.05" gradientUnits="userSpaceOnUse">
      <stop stop-color="#A776D3" offset="0"/>
      <stop stop-color="#9B68F2" offset="1"/>
    </linearGradient>
    <linearGradient id="paint12_linear_1188_1074" x1="143.3" x2="143.3" y1="18.01" y2="60.61" gradientUnits="userSpaceOnUse">
      <stop stop-color="#A776D3" offset="0"/>
      <stop stop-color="#9B68F2" offset="1"/>
    </linearGradient>
    <linearGradient id="paint13_linear_1188_1074" x1="204.4" x2="204.4" y1="71.22" y2="116" gradientUnits="userSpaceOnUse">
      <stop stop-color="#A776D3" offset="0"/>
      <stop stop-color="#9B68F2" offset="1"/>
    </linearGradient>
    <linearGradient id="paint14_linear_1188_1074" x1="216.4" x2="216.4" y1="75.22" y2="98.71" gradientUnits="userSpaceOnUse">
      <stop stop-color="#A776D3" offset="0"/>
      <stop stop-color="#9B68F2" offset="1"/>
    </linearGradient>
    <linearGradient id="paint15_linear_1188_1074" x1="206.9" x2="206.9" y1="97.21" y2="124" gradientUnits="userSpaceOnUse">
      <stop stop-color="#A776D3" offset="0"/>
      <stop stop-color="#9B68F2" offset="1"/>
    </linearGradient>
    <linearGradient id="paint16_linear_1188_1074" x1="215.6" x2="215.6" y1="150.1" y2="173.1" gradientUnits="userSpaceOnUse">
      <stop stop-color="#A776D3" offset="0"/>
      <stop stop-color="#9B68F2" offset="1"/>
    </linearGradient>
    <linearGradient id="paint17_linear_1188_1074" x1="199.3" x2="199.3" y1="132.9" y2="172.6" gradientUnits="userSpaceOnUse">
      <stop stop-color="#80D7F7" offset="0"/>
      <stop stop-color="#9B68F2" offset="1"/>
    </linearGradient>
    <linearGradient id="paint18_linear_1188_1074" x1="138.6" x2="138.6" y1="179" y2="200.9" gradientUnits="userSpaceOnUse">
      <stop stop-color="#80D7F7" offset="0"/>
      <stop stop-color="#9B68F2" offset="1"/>
    </linearGradient>
    <linearGradient id="paint19_linear_1188_1074" x1="114.6" x2="114.6" y1="188.2" y2="202.1" gradientUnits="userSpaceOnUse">
      <stop stop-color="#80D7F7" offset="0"/>
      <stop stop-color="#9B68F2" offset="1"/>
    </linearGradient>
    <linearGradient id="paint20_linear_1188_1074" x1="55.52" x2="55.52" y1="138.6" y2="158.2" gradientUnits="userSpaceOnUse">
      <stop stop-color="#80D7F7" offset="0"/>
      <stop stop-color="#9B68F2" offset="1"/>
    </linearGradient>
    <linearGradient id="paint21_linear_1188_1074" x1="115.7" x2="115.7" y1="186.1" y2="228.2" gradientUnits="userSpaceOnUse">
      <stop stop-color="#A776D3" offset="0"/>
      <stop stop-color="#9B68F2" offset="1"/>
    </linearGradient>
    <linearGradient id="paint22_linear_1188_1074" x1="172.4" x2="172.4" y1="172.6" y2="177.6" gradientUnits="userSpaceOnUse">
      <stop stop-color="#80D7F7" offset="0"/>
      <stop stop-color="#9B68F2" offset="1"/>
    </linearGradient>
    <linearGradient id="paint23_linear_1188_1074" x1="133.6" x2="133.6" y1="47.21" y2="59.84" gradientUnits="userSpaceOnUse">
      <stop stop-color="#80D7F7" offset="0"/>
      <stop stop-color="#9B68F2" offset="1"/>
    </linearGradient>
    <linearGradient id="paint24_linear_1188_1074" x1="111" x2="111" y1="23.41" y2="67.21" gradientUnits="userSpaceOnUse">
      <stop stop-color="#A776D3" offset="0"/>
      <stop stop-color="#9B68F2" offset="1"/>
    </linearGradient>
    <linearGradient id="paint25_linear_1188_1074" x1="132.8" x2="132.8" y1="68.01" y2="69.11" gradientUnits="userSpaceOnUse">
      <stop stop-color="#80D7F7" offset="0"/>
      <stop stop-color="#9B68F2" offset="1"/>
    </linearGradient>
    <linearGradient id="paint26_linear_1188_1074" x1="151.1" x2="151.1" y1="76.26" y2="78.21" gradientUnits="userSpaceOnUse">
      <stop stop-color="#80D7F7" offset="0"/>
      <stop stop-color="#9B68F2" offset="1"/>
    </linearGradient>
    <linearGradient id="paint27_linear_1188_1074" x1="182.4" x2="182.4" y1="91.71" y2="114.1" gradientUnits="userSpaceOnUse">
      <stop stop-color="#80D7F7" offset="0"/>
      <stop stop-color="#9B68F2" offset="1"/>
    </linearGradient>
    <linearGradient id="paint28_linear_1188_1074" x1="179.3" x2="179.3" y1="91.71" y2="158.2" gradientUnits="userSpaceOnUse">
      <stop stop-color="#80D7F7" offset="0"/>
      <stop stop-color="#9B68F2" offset="1"/>
    </linearGradient>
    <linearGradient id="paint29_linear_1188_1074" x1="167.8" x2="167.8" y1="145.7" y2="173.5" gradientUnits="userSpaceOnUse">
      <stop stop-color="#80D7F7" offset="0"/>
      <stop stop-color="#9B68F2" offset="1"/>
    </linearGradient>
    <linearGradient id="paint30_linear_1188_1074" x1="101.8" x2="101.8" y1="47.21" y2="103.7" gradientUnits="userSpaceOnUse">
      <stop stop-color="#A776D3" offset="0"/>
      <stop stop-color="#9B68F2" offset="1"/>
    </linearGradient>
    <linearGradient id="paint31_linear_1188_1074" x1="104.5" x2="104.5" y1="49.41" y2="114.6" gradientUnits="userSpaceOnUse">
      <stop stop-color="#80D7F7" offset="0"/>
      <stop stop-color="#9B68F2" offset="1"/>
    </linearGradient>
    <linearGradient id="paint32_linear_1188_1074" x1="124.6" x2="124.6" y1="40.61" y2="51.21" gradientUnits="userSpaceOnUse">
      <stop stop-color="#80D7F7" offset="0"/>
      <stop stop-color="#9B68F2" offset="1"/>
    </linearGradient>
    <linearGradient id="paint33_linear_1188_1074" x1="102.4" x2="102.4" y1="25.71" y2="35.45" gradientUnits="userSpaceOnUse">
      <stop stop-color="#A776D3" offset="0"/>
      <stop stop-color="#9B68F2" offset="1"/>
    </linearGradient>
    <linearGradient id="paint34_linear_1188_1074" x1="147.7" x2="147.7" y1="28.16" y2="36.76" gradientUnits="userSpaceOnUse">
      <stop stop-color="#A776D3" offset="0"/>
      <stop stop-color="#9B68F2" offset="1"/>
    </linearGradient>
    <linearGradient id="paint35_linear_1188_1074" x1="194.8" x2="194.8" y1="54.26" y2="62.16" gradientUnits="userSpaceOnUse">
      <stop stop-color="#A776D3" offset="0"/>
      <stop stop-color="#9B68F2" offset="1"/>
    </linearGradient>
    <linearGradient id="paint36_linear_1188_1074" x1="218.1" x2="218.1" y1="66.12" y2="75.72" gradientUnits="userSpaceOnUse">
      <stop stop-color="#A776D3" offset="0"/>
      <stop stop-color="#9B68F2" offset="1"/>
    </linearGradient>
    <linearGradient id="paint37_linear_1188_1074" x1="217.7" x2="217.7" y1="92.96" y2="100.8" gradientUnits="userSpaceOnUse">
      <stop stop-color="#A776D3" offset="0"/>
      <stop stop-color="#9B68F2" offset="1"/>
    </linearGradient>
    <linearGradient id="paint38_linear_1188_1074" x1="217.2" x2="217.2" y1="148.6" y2="156.1" gradientUnits="userSpaceOnUse">
      <stop stop-color="#A776D3" offset="0"/>
      <stop stop-color="#9B68F2" offset="1"/>
    </linearGradient>
    <linearGradient id="paint39_linear_1188_1074" x1="217.7" x2="217.7" y1="173.8" y2="183.3" gradientUnits="userSpaceOnUse">
      <stop stop-color="#A776D3" offset="0"/>
      <stop stop-color="#9B68F2" offset="1"/>
    </linearGradient>
    <linearGradient id="paint40_linear_1188_1074" x1="193.4" x2="193.4" y1="187.9" y2="194.6" gradientUnits="userSpaceOnUse">
      <stop stop-color="#A776D3" offset="0"/>
      <stop stop-color="#9B68F2" offset="1"/>
    </linearGradient>
    <linearGradient id="paint41_linear_1188_1074" x1="147" x2="147" y1="214.9" y2="221.9" gradientUnits="userSpaceOnUse">
      <stop stop-color="#A776D3" offset="0"/>
      <stop stop-color="#9B68F2" offset="1"/>
    </linearGradient>
    <linearGradient id="paint42_linear_1188_1074" x1="102" x2="102" y1="215" y2="221.6" gradientUnits="userSpaceOnUse">
      <stop stop-color="#A776D3" offset="0"/>
      <stop stop-color="#9B68F2" offset="1"/>
    </linearGradient>
    <linearGradient id="paint43_linear_1188_1074" x1="56.32" x2="56.32" y1="188.8" y2="195.4" gradientUnits="userSpaceOnUse">
      <stop stop-color="#A776D3" offset="0"/>
      <stop stop-color="#9B68F2" offset="1"/>
    </linearGradient>
    <linearGradient id="paint44_linear_1188_1074" x1="31.52" x2="31.52" y1="173.9" y2="182.9" gradientUnits="userSpaceOnUse">
      <stop stop-color="#A776D3" offset="0"/>
      <stop stop-color="#9B68F2" offset="1"/>
    </linearGradient>
    <linearGradient id="paint45_linear_1188_1074" x1="32.32" x2="32.32" y1="148.6" y2="155.4" gradientUnits="userSpaceOnUse">
      <stop stop-color="#A776D3" offset="0"/>
      <stop stop-color="#9B68F2" offset="1"/>
    </linearGradient>
    <linearGradient id="paint46_linear_1188_1074" x1="31.87" x2="31.87" y1="93.76" y2="101.3" gradientUnits="userSpaceOnUse">
      <stop stop-color="#A776D3" offset="0"/>
      <stop stop-color="#9B68F2" offset="1"/>
    </linearGradient>
    <linearGradient id="paint47_linear_1188_1074" x1="31.52" x2="31.52" y1="66.66" y2="76.46" gradientUnits="userSpaceOnUse">
      <stop stop-color="#A776D3" offset="0"/>
      <stop stop-color="#9B68F2" offset="1"/>
    </linearGradient>
    <linearGradient id="paint48_linear_1188_1074" x1="55.72" x2="55.72" y1="55.06" y2="62.11" gradientUnits="userSpaceOnUse">
      <stop stop-color="#A776D3" offset="0"/>
      <stop stop-color="#9B68F2" offset="1"/>
    </linearGradient>
    <linearGradient id="paint49_linear_1188_1074" x1="76.89" x2="76.89" y1="74.02" y2="96.21" gradientUnits="userSpaceOnUse">
      <stop stop-color="#A776D3" offset="0"/>
      <stop stop-color="#9B68F2" offset="1"/>
    </linearGradient>
    <linearGradient id="paint50_linear_1188_1074" x1="67.16" x2="67.16" y1="114.6" y2="158.7" gradientUnits="userSpaceOnUse">
      <stop stop-color="#80D7F7" offset="0"/>
      <stop stop-color="#9B68F2" offset="1"/>
    </linearGradient>
    <linearGradient id="paint51_linear_1188_1074" x1="65.17" x2="65.17" y1="138.6" y2="158.9" gradientUnits="userSpaceOnUse">
      <stop stop-color="#80D7F7" offset="0"/>
      <stop stop-color="#9B68F2" offset="1"/>
    </linearGradient>
    <linearGradient id="paint52_linear_1188_1074" x1="113.7" x2="113.7" y1="185.2" y2="186.2" gradientUnits="userSpaceOnUse">
      <stop stop-color="#80D7F7" offset="0"/>
      <stop stop-color="#9B68F2" offset="1"/>
    </linearGradient>
    <linearGradient id="paint53_linear_1188_1074" x1="97.82" x2="97.82" y1="165.1" y2="173.1" gradientUnits="userSpaceOnUse">
      <stop stop-color="#80D7F7" offset="0"/>
      <stop stop-color="#9B68F2" offset="1"/>
    </linearGradient>
    <linearGradient id="paint54_linear_1188_1074" x1="190" x2="190" y1="86.21" y2="109.3" gradientUnits="userSpaceOnUse">
      <stop stop-color="#80D7F7" offset="0"/>
      <stop stop-color="#9B68F2" offset="1"/>
    </linearGradient>
    <linearGradient id="paint55_linear_1188_1074" x1="66.47" x2="66.47" y1="75.71" y2="82.11" gradientUnits="userSpaceOnUse">
      <stop stop-color="#80D7F7" offset="0"/>
      <stop stop-color="#9B68F2" offset="1"/>
    </linearGradient>
    <linearGradient id="paint56_linear_1188_1074" x1="73.51" x2="73.51" y1="88.41" y2="155.3" gradientUnits="userSpaceOnUse">
      <stop stop-color="#80D7F7" offset="0"/>
      <stop stop-color="#9B68F2" offset="1"/>
    </linearGradient>
    <linearGradient id="paint57_linear_1188_1074" x1="173.2" x2="173.2" y1="94.91" y2="159.4" gradientUnits="userSpaceOnUse">
      <stop stop-color="#80D7F7" offset="0"/>
      <stop stop-color="#9B68F2" offset="1"/>
    </linearGradient>
    <linearGradient id="paint58_linear_1188_1074" x1="145.8" x2="145.8" y1="135.7" y2="200.2" gradientUnits="userSpaceOnUse">
      <stop stop-color="#80D7F7" offset="0"/>
      <stop stop-color="#9B68F2" offset="1"/>
    </linearGradient>
    <linearGradient id="paint59_linear_1188_1074" x1="137.4" x2="137.4" y1="138.6" y2="139.6" gradientUnits="userSpaceOnUse">
      <stop stop-color="#80D7F7" offset="0"/>
      <stop stop-color="#9B68F2" offset="1"/>
    </linearGradient>
    <linearGradient id="paint60_linear_1188_1074" x1="99.12" x2="99.12" y1="163.6" y2="165.6" gradientUnits="userSpaceOnUse">
      <stop stop-color="#80D7F7" offset="0"/>
      <stop stop-color="#9B68F2" offset="1"/>
    </linearGradient>
    <linearGradient id="paint61_linear_1188_1074" x1="185.9" x2="185.9" y1="116.9" y2="124" gradientUnits="userSpaceOnUse">
      <stop stop-color="#80D7F7" offset="0"/>
      <stop stop-color="#9B68F2" offset="1"/>
    </linearGradient>
    <linearGradient id="paint62_linear_1188_1074" x1="165" x2="165" y1="129.8" y2="139.2" gradientUnits="userSpaceOnUse">
      <stop stop-color="#80D7F7" offset="0"/>
      <stop stop-color="#9B68F2" offset="1"/>
    </linearGradient>
    <linearGradient id="paint63_linear_1188_1074" x1="159.2" x2="159.2" y1="172" y2="179.1" gradientUnits="userSpaceOnUse">
      <stop stop-color="#80D7F7" offset="0"/>
      <stop stop-color="#9B68F2" offset="1"/>
    </linearGradient>
    <linearGradient id="paint64_linear_1188_1074" x1="98.72" x2="98.72" y1="175.7" y2="183" gradientUnits="userSpaceOnUse">
      <stop stop-color="#80D7F7" offset="0"/>
      <stop stop-color="#9B68F2" offset="1"/>
    </linearGradient>
    <linearGradient id="paint65_linear_1188_1074" x1="56.32" x2="56.32" y1="158.4" y2="169.8" gradientUnits="userSpaceOnUse">
      <stop stop-color="#80D7F7" offset="0"/>
      <stop stop-color="#9B68F2" offset="1"/>
    </linearGradient>
    <linearGradient id="paint66_linear_1188_1074" x1="63.57" x2="63.57" y1="126" y2="133.5" gradientUnits="userSpaceOnUse">
      <stop stop-color="#80D7F7" offset="0"/>
      <stop stop-color="#9B68F2" offset="1"/>
    </linearGradient>
    <linearGradient id="paint67_linear_1188_1074" x1="192.7" x2="192.7" y1="158.1" y2="169.4" gradientUnits="userSpaceOnUse">
      <stop stop-color="#80D7F7" offset="0"/>
      <stop stop-color="#9B68F2" offset="1"/>
    </linearGradient>
    <linearGradient id="paint68_linear_1188_1074" x1="191.7" x2="191.7" y1="79.71" y2="91.31" gradientUnits="userSpaceOnUse">
      <stop stop-color="#80D7F7" offset="0"/>
      <stop stop-color="#9B68F2" offset="1"/>
    </linearGradient>
    <linearGradient id="paint69_linear_1188_1074" x1="150.8" x2="150.8" y1="65.96" y2="73.86" gradientUnits="userSpaceOnUse">
      <stop stop-color="#80D7F7" offset="0"/>
      <stop stop-color="#9B68F2" offset="1"/>
    </linearGradient>
    <linearGradient id="paint70_linear_1188_1074" x1="112.9" x2="112.9" y1="80.81" y2="88.91" gradientUnits="userSpaceOnUse">
      <stop stop-color="#80D7F7" offset="0"/>
      <stop stop-color="#9B68F2" offset="1"/>
    </linearGradient>
    <linearGradient id="paint71_linear_1188_1074" x1="153.8" x2="153.8" y1="90.26" y2="99.26" gradientUnits="userSpaceOnUse">
      <stop stop-color="#80D7F7" offset="0"/>
      <stop stop-color="#9B68F2" offset="1"/>
    </linearGradient>
    <linearGradient id="paint72_linear_1188_1074" x1="137" x2="137" y1="160.7" y2="168.8" gradientUnits="userSpaceOnUse">
      <stop stop-color="#80D7F7" offset="0"/>
      <stop stop-color="#9B68F2" offset="1"/>
    </linearGradient>
    <linearGradient id="paint73_linear_1188_1074" x1="56.42" x2="56.42" y1="79.71" y2="91.31" gradientUnits="userSpaceOnUse">
      <stop stop-color="#80D7F7" offset="0"/>
      <stop stop-color="#9B68F2" offset="1"/>
    </linearGradient>
    <linearGradient id="paint74_linear_1188_1074" x1="95.02" x2="95.02" y1="151" y2="159.1" gradientUnits="userSpaceOnUse">
      <stop stop-color="#80D7F7" offset="0"/>
      <stop stop-color="#9B68F2" offset="1"/>
    </linearGradient>
    <linearGradient id="paint75_linear_1188_1074" x1="84.47" x2="84.47" y1="111.1" y2="119.2" gradientUnits="userSpaceOnUse">
      <stop stop-color="#80D7F7" offset="0"/>
      <stop stop-color="#9B68F2" offset="1"/>
    </linearGradient>
    <linearGradient id="paint76_linear_1188_1074" x1="90.47" x2="90.47" y1="70.41" y2="77.71" gradientUnits="userSpaceOnUse">
      <stop stop-color="#80D7F7" offset="0"/>
      <stop stop-color="#9B68F2" offset="1"/>
    </linearGradient>
    <linearGradient id="paint77_linear_1188_1074" x1="124.9" y1="197.9"/>
  </defs>
</svg>